<?xml version="1.0" encoding="UTF-8" standalone="no"?>
<svg
   viewBox="0 0 512 512"
   version="1.1"
   id="svg1"
   sodipodi:docname="kingandrook.svg"
   width="512"
   height="512"
   inkscape:version="1.4.2 (ebf0e940d0, 2025-05-08)"
   xmlns:inkscape="http://www.inkscape.org/namespaces/inkscape"
   xmlns:sodipodi="http://sodipodi.sourceforge.net/DTD/sodipodi-0.dtd"
   xmlns="http://www.w3.org/2000/svg"
   xmlns:svg="http://www.w3.org/2000/svg">
  <defs
     id="defs1" />
  <sodipodi:namedview
     id="namedview1"
     pagecolor="#505050"
     bordercolor="#eeeeee"
     borderopacity="1"
     inkscape:showpageshadow="0"
     inkscape:pageopacity="0"
     inkscape:pagecheckerboard="0"
     inkscape:deskcolor="#d1d1d1"
     inkscape:zoom="1.207"
     inkscape:cx="255.59238"
     inkscape:cy="277.13339"
     inkscape:window-width="2506"
     inkscape:window-height="1416"
     inkscape:window-x="0"
     inkscape:window-y="0"
     inkscape:window-maximized="1"
     inkscape:current-layer="svg1" />
  <path
     class="logo"
     d="M 144,16 C 144,7.2 136.8,0 128,0 119.2,0 112,7.2 112,16 V 32 H 96 c -8.8,0 -16,7.2 -16,16 0,8.8 7.2,16 16,16 h 16 V 96 H 60.2 C 49.1,96 40,105.1 40,116.2 c 0,2.5 0.5,4.9 1.3,7.3 L 73.8,208 H 72 c -13.3,0 -24,10.7 -24,24 0,13.3 10.7,24 24,24 h 4 L 60,384 H 196 L 180,256 h 4 c 13.3,0 24,-10.7 24,-24 0,-13.3 -10.7,-24 -24,-24 h -1.8 l 32.5,-84.5 c 0.9,-2.3 1.3,-4.8 1.3,-7.3 C 216,105 206.9,96 195.8,96 H 144 V 64 h 16 c 8.8,0 16,-7.2 16,-16 0,-8.8 -7.2,-16 -16,-16 H 144 Z M 48,416 4.8,473.6 C 1.7,477.8 0,482.8 0,488 c 0,13.3 10.7,24 24,24 h 208 c 13.3,0 24,-10.7 24,-24 0,-5.2 -1.7,-10.2 -4.8,-14.4 L 208,416 Z m 288,0 -43.2,57.6 c -3.1,4.2 -4.8,9.2 -4.8,14.4 0,13.3 10.7,24 24,24 h 176 c 13.3,0 24,-10.7 24,-24 0,-5.2 -1.7,-10.2 -4.8,-14.4 L 464,416 Z M 304,208 v 51.9 c 0,7.8 2.8,15.3 8,21.1 l 27.2,31 -2.2,72 h 125.5 l -3.3,-72 28.3,-30.8 c 5.4,-5.9 8.5,-13.6 8.5,-21.7 V 208 c 0,-8.8 -7.2,-16 -16,-16 h -16 c -8.8,0 -16,7.2 -16,16 v 16 h -24 v -16 c 0,-8.8 -7.2,-16 -16,-16 h -16 c -8.8,0 -16,7.2 -16,16 v 16 h -24 v -16 c 0,-8.8 -7.2,-16 -16,-16 h -16 c -8.8,0 -16,7.2 -16,16 z m 80,96 c 0,-8.8 7.2,-16 16,-16 8.8,0 16,7.2 16,16 v 32 h -32 z"
     id="path1" />
</svg>
